<svg width="0" height="0" class="hidden">
  <symbol  version="1.1" id="linkedin" xmlns="http://www.w3.org/2000/svg" xmlns:xlink="http://www.w3.org/1999/xlink" xml:space="preserve" viewBox="-143 145 512 512">
    <path d="M329,145h-432c-22.1,0-40,17.9-40,40v432c0,22.1,17.9,40,40,40h432c22.1,0,40-17.9,40-40V185C369,162.9,351.1,145,329,145z
	 M41.4,508.1H-8.5V348.4h49.9V508.1z M15.1,328.4h-0.4c-18.1,0-29.8-12.2-29.8-27.7c0-15.8,12.1-27.7,30.5-27.7
	c18.4,0,29.7,11.9,30.1,27.7C45.6,316.1,33.9,328.4,15.1,328.4z M241,508.1h-56.6v-82.6c0-21.6-8.8-36.4-28.3-36.4
	c-14.9,0-23.2,10-27,19.6c-1.4,3.4-1.2,8.2-1.2,13.1v86.3H71.8c0,0,0.7-146.4,0-159.7h56.1v25.1c3.3-11,21.2-26.6,49.8-26.6
	c35.5,0,63.3,23,63.3,72.4V508.1z"></path>
  </symbol>
  <symbol xmlns="http://www.w3.org/2000/svg" id="envelope" viewBox="0 0 24 24">
    <path d="M9.878,12.546a3.007,3.007,0,0,0,4.244,0l9.659-9.66A3,3,0,0,0,21,1H3A3,3,0,0,0,.219,2.886Z"></path>
    <path d="M15.536,13.96a5.007,5.007,0,0,1-7.072,0L0,5.5V23H24V5.5Z"></path>
  </symbol>
  <symbol xmlns="http://www.w3.org/2000/svg" xmlns:xlink="http://www.w3.org/1999/xlink" version="1.1" id="github" x="0px" y="0px" xml:space="preserve" viewBox="0 0 24 24">
    <g>
      <path d="M12,0.296c-6.627,0-12,5.372-12,12c0,5.302,3.438,9.8,8.206,11.387   c0.6,0.111,0.82-0.26,0.82-0.577c0-0.286-0.011-1.231-0.016-2.234c-3.338,0.726-4.043-1.416-4.043-1.416   C4.421,18.069,3.635,17.7,3.635,17.7c-1.089-0.745,0.082-0.729,0.082-0.729c1.205,0.085,1.839,1.237,1.839,1.237   c1.07,1.834,2.807,1.304,3.492,0.997C9.156,18.429,9.467,17.9,9.81,17.6c-2.665-0.303-5.467-1.332-5.467-5.93   c0-1.31,0.469-2.381,1.237-3.221C5.455,8.146,5.044,6.926,5.696,5.273c0,0,1.008-0.322,3.301,1.23   C9.954,6.237,10.98,6.104,12,6.099c1.02,0.005,2.047,0.138,3.006,0.404c2.29-1.553,3.297-1.23,3.297-1.23   c0.653,1.653,0.242,2.873,0.118,3.176c0.769,0.84,1.235,1.911,1.235,3.221c0,4.609-2.807,5.624-5.479,5.921   c0.43,0.372,0.814,1.103,0.814,2.222c0,1.606-0.014,2.898-0.014,3.293c0,0.319,0.216,0.694,0.824,0.576   c4.766-1.589,8.2-6.085,8.2-11.385C24,5.669,18.627,0.296,12,0.296z"></path>
      <path d="M4.545,17.526c-0.026,0.06-0.12,0.078-0.206,0.037c-0.087-0.039-0.136-0.121-0.108-0.18   c0.026-0.061,0.12-0.078,0.207-0.037C4.525,17.384,4.575,17.466,4.545,17.526L4.545,17.526z"></path>
      <path d="M5.031,18.068c-0.057,0.053-0.169,0.028-0.245-0.055c-0.079-0.084-0.093-0.196-0.035-0.249   c0.059-0.053,0.167-0.028,0.246,0.056C5.076,17.903,5.091,18.014,5.031,18.068L5.031,18.068z"></path>
      <path d="M5.504,18.759c-0.074,0.051-0.194,0.003-0.268-0.103c-0.074-0.107-0.074-0.235,0.002-0.286   c0.074-0.051,0.193-0.005,0.268,0.101C5.579,18.579,5.579,18.707,5.504,18.759L5.504,18.759z"></path>
      <path d="M6.152,19.427c-0.066,0.073-0.206,0.053-0.308-0.046c-0.105-0.097-0.134-0.234-0.068-0.307   c0.067-0.073,0.208-0.052,0.311,0.046C6.191,19.217,6.222,19.355,6.152,19.427L6.152,19.427z"></path>
      <path d="M7.047,19.814c-0.029,0.094-0.164,0.137-0.3,0.097C6.611,19.87,6.522,19.76,6.55,19.665   c0.028-0.095,0.164-0.139,0.301-0.096C6.986,19.609,7.075,19.719,7.047,19.814L7.047,19.814z"></path>
      <path d="M8.029,19.886c0.003,0.099-0.112,0.181-0.255,0.183c-0.143,0.003-0.26-0.077-0.261-0.174c0-0.1,0.113-0.181,0.256-0.184   C7.912,19.708,8.029,19.788,8.029,19.886L8.029,19.886z"></path>
      <path d="M8.943,19.731c0.017,0.096-0.082,0.196-0.224,0.222c-0.139,0.026-0.268-0.034-0.286-0.13   c-0.017-0.099,0.084-0.198,0.223-0.224C8.797,19.574,8.925,19.632,8.943,19.731L8.943,19.731z"></path>
    </g>
  </symbol>
</svg>
